<?xml version="1.0" encoding="UTF-8" standalone="no"?>
<!-- Created with Inkscape (http://www.inkscape.org/) -->

<svg
   xmlns:dc="http://purl.org/dc/elements/1.1/"
   xmlns:cc="http://creativecommons.org/ns#"
   xmlns:rdf="http://www.w3.org/1999/02/22-rdf-syntax-ns#"
   xmlns:svg="http://www.w3.org/2000/svg"
   xmlns="http://www.w3.org/2000/svg"
   xmlns:sodipodi="http://sodipodi.sourceforge.net/DTD/sodipodi-0.dtd"
   xmlns:inkscape="http://www.inkscape.org/namespaces/inkscape"
   width="1098.2916"
   height="1063.6086"
   id="svg2"
   version="1.1"
   inkscape:version="0.48.4 r9939"
   sodipodi:docname="logo.svg">
  <defs
     id="defs4" />
  <sodipodi:namedview
     id="base"
     pagecolor="#ffffff"
     bordercolor="#666666"
     borderopacity="1.0"
     inkscape:pageopacity="0.0"
     inkscape:pageshadow="2"
     inkscape:zoom="0.18577088"
     inkscape:cx="460.30983"
     inkscape:cy="483.65598"
     inkscape:document-units="px"
     inkscape:current-layer="layer1"
     showgrid="false"
     inkscape:window-width="1102"
     inkscape:window-height="896"
     inkscape:window-x="69"
     inkscape:window-y="34"
     inkscape:window-maximized="0"
     fit-margin-top="0"
     fit-margin-left="0"
     fit-margin-right="0"
     fit-margin-bottom="0" />
  <metadata
     id="metadata7">
    <rdf:RDF>
      <cc:Work
         rdf:about="">
        <dc:format>image/svg+xml</dc:format>
        <dc:type
           rdf:resource="http://purl.org/dc/dcmitype/StillImage" />
        <dc:title />
      </cc:Work>
    </rdf:RDF>
  </metadata>
  <g
     inkscape:label="Layer 1"
     inkscape:groupmode="layer"
     id="layer1"
     transform="translate(76.765901,66.050057)">
    <g
       id="g3089"
       transform="translate(48.446776,-48.446776)">
      <rect
         y="-17.603281"
         x="-125.21268"
         height="1063.6086"
         width="1098.2916"
         id="rect3085"
         style="fill:none;stroke:none" />
      <path
         style="fill:#cc0000"
         d="m 747.24637,1009.9905 c -23.375,-1.3045 -73.10004,-3.9728 -110.50004,-5.9295 -37.4,-1.9568 -106.475,-5.57238 -153.5,-8.03478 -47.025,-2.4624 -137.475,-7.1892 -201,-10.5041 -238.03909,-12.4214 -222.17535,-11.4357 -224.44682,-13.9456 -1.3332,-1.4732 -1.38137,-33.3736 -0.42979,-284.60894 0.88892,-234.69188 1.30237,-283.31456 2.42419,-285.08837 1.65752,-2.62089 5.82547,-2.95495 54.95242,-4.40438 18.7,-0.55172 47.05,-1.4387 63,-1.97106 15.95,-0.53236 63.65,-2.09463 106,-3.4717 42.35,-1.37708 97.25,-3.17949 122,-4.00537 24.75,-0.82588 79.65,-2.62469 122,-3.99737 92.17007,-2.98748 129.9779,-4.24092 166.00004,-5.50341 92.8227,-3.25321 101.6934,-3.38763 107.726,-1.63232 3.7495,1.09098 6.1575,2.43553 6.9759,3.89513 1.3222,2.35791 2.2547,151.69318 2.9676,475.22899 l 0.3305,149.99998 -6,2.9231 c -3.6791,1.7924 -7.9341,3.0195 -11,3.1723 -2.75,0.1371 -24.125,-0.818 -47.5,-2.1226 z M 147.44389,542.76776 c 1.51006,-1.75292 44.52182,-103.38216 46.79443,-110.567 0.66404,-2.09935 0.96089,-4.06345 0.65968,-4.36467 -0.30122,-0.30121 -6.0525,-0.15856 -12.78062,0.317 l -12.23295,0.86467 -23.81109,56.5 c -13.09609,31.075 -23.81467,56.81284 -23.81905,57.19521 -0.009,0.77438 5.89923,1.35302 16.58705,1.62454 5.66785,0.14399 7.39826,-0.17176 8.60255,-1.56975 z m 127.52287,-1.5 c 2.28501,-2.95889 49.27957,-113.96787 49.27957,-116.40655 0,-0.69436 -26.53578,-0.28843 -27.57778,0.42186 -1.39948,0.95399 -50.3087,115.49781 -49.73794,116.48469 0.78326,1.35432 26.96472,0.8874 28.03615,-0.5 z m 132.72288,-2.64037 c 4.99696,-9.66306 50.55669,-115.76516 50.55669,-117.73931 0,-1.03635 -31.31637,0.0838 -31.69903,1.13389 -0.19959,0.54768 -11.7912,27.32079 -25.75913,59.49579 l -25.39624,58.5 4.1772,0.59981 c 2.29746,0.32989 9.22814,0.66739 15.40152,0.75 l 11.22432,0.15019 z M 550.5567,524.76776 c 3.58497,-8.1125 14.48255,-32.75 24.21683,-54.75 16.13942,-36.47594 22.4728,-51.46305 22.4728,-53.17892 0,-0.61867 -33.93753,0.28311 -34.57308,0.91867 -1.10133,1.10133 -53.10644,120.40339 -52.74973,121.01025 0.24246,0.4125 8.01754,0.75 17.27795,0.75 l 16.83711,0 z m 135.91487,12 c 0.8444,-0.9625 12.2311,-25.6 25.3039,-54.75 25.9733,-57.91614 29.4709,-66.0213 29.4709,-68.29453 0,-1.32708 -2.3587,-1.44101 -18.6293,-0.89987 -10.2461,0.34077 -18.7693,0.75966 -18.9405,0.93087 -0.1712,0.1712 -12.6823,27.97554 -27.8024,61.7874 l -27.49109,61.47613 4.68163,0.5929 c 2.57489,0.32609 10.79938,0.66359 18.27663,0.75 11.8199,0.13659 13.79547,-0.0714 15.13023,-1.5929 z M 68.89775,387.58029 C 64.58103,386.61036 60.7374,385.31233 60.35636,384.6958 59.97532,384.07926 54.12981,346.83043 47.36634,301.92061 37.11339,233.8404 35.29165,220.04974 36.40773,218.96314 c 1.4966,-1.45708 2.34552,-1.70454 122.8386,-35.8081 101.03284,-28.59566 440.58219,-124.74098 525,-148.65672 13.47504,-3.81749 33.27504,-9.48295 44.00004,-12.58991 10.725,-3.10695 20.4625,-5.64159 21.6389,-5.63253 1.1764,0.009 4.8295,1.84366 8.1181,4.07688 5.1595,3.50377 6.1335,4.67322 7.1049,8.53066 0.6191,2.45865 7.8875,42.54477 16.1521,89.08028 11.033,62.1242 14.7627,85.10283 14.034,86.46439 -0.5458,1.0199 -1.7924,2.16891 -2.7702,2.55333 -1.9944,0.78412 -36.6538,9.69913 -393.27784,101.15817 -138.325,35.47453 -266.24649,68.29692 -284.26997,72.93866 -18.02349,4.64173 -33.99849,8.40037 -35.5,8.35254 -1.50152,-0.0478 -6.26189,-0.88056 -10.57861,-1.8505 z m 63.11603,-48.14611 c 5.3529,-1.14597 10.26736,-2.60847 10.92101,-3.25 1.92114,-1.88552 29.28746,-116.02383 28.10251,-117.20879 -0.50009,-0.50008 -21.00767,5.35812 -21.89688,6.25507 -0.89702,0.90484 -27.89409,111.67832 -27.89409,114.45413 0,2.23441 -0.94164,2.25631 10.76745,-0.25041 z m 124.23255,-33.00014 c 5.225,-1.16978 10.03981,-2.64199 10.69957,-3.27158 0.65977,-0.62958 7.04414,-24.9947 14.1875,-54.1447 12.51109,-51.05418 15.53074,-64.41553 14.73717,-65.2091 -0.54666,-0.54665 -22.93211,5.7634 -24.25373,6.83669 -0.62121,0.5045 -1.39101,2.14467 -1.71065,3.64484 -0.31964,1.50016 -6.67155,27.47757 -14.11535,57.72757 -7.4438,30.25 -13.53651,55.57107 -13.53935,56.26905 -0.003,0.79751 0.83087,1.08421 2.24484,0.77158 1.2375,-0.27361 6.525,-1.45457 11.75,-2.62435 z m 130.78659,-33.41373 c 5.10762,-1.23332 9.56389,-2.5197 9.90283,-2.85864 0.74461,-0.7446 25.58234,-100.70494 27.93335,-112.41879 0.91345,-4.55118 1.37546,-8.56023 1.0267,-8.90899 -0.5705,-0.57049 -7.36646,1.04524 -22.32527,5.30779 l -5.1758,1.47486 -14.5742,58.8399 c -8.01581,32.36195 -14.5742,59.60427 -14.5742,60.53851 0,1.98628 2.55979,1.70209 17.78659,-1.97464 z m 124.13992,-33.00018 c 10.50898,-2.19211 18.37431,-4.52293 19.76797,-5.85806 1.07015,-1.02521 27.06569,-102.86332 29.39213,-115.14431 0.52094,-2.75 1.19489,-5.7875 1.49767,-6.75 0.361,-1.1476 0.0202,-1.75 -0.99008,-1.75 -2.80365,0 -28.06968,7.27945 -29.36924,8.46163 -1.18564,1.07856 -31.22496,118.50626 -31.22496,122.06254 0,1.07358 0.5835,1.43001 1.75,1.06897 0.9625,-0.2979 5.09193,-1.23874 9.17651,-2.09077 z m 150.28193,-39.61908 c 5.95889,-1.60788 8.17609,-2.67773 8.83851,-4.26479 1.89618,-4.54291 30.90609,-119.73188 30.94399,-122.8685 0,-0.4125 -0.7784,-0.74116 -1.7409,-0.73034 -1.8656,0.0209 -32.09544,8.44695 -32.63254,9.0957 -0.85812,1.03651 -31.59461,123.11266 -31.17031,123.79919 0.52864,0.85537 12.8984,-1.56049 25.76125,-5.03126 z"
         id="path3054"
         inkscape:connector-curvature="0"
         sodipodi:nodetypes="sssscssssssssscscscssscscscssssssssscscsscssssssscscssscscsscssssssscscsccsscssscsssscsscsscssssssscssssssssssssssccsss" />
      <path
         style="fill:#480000"
         d="m 643.74633,1003.4525 c -160.04852,-8.52348 -400.95309,-21.19988 -493,-25.94168 -73.87303,-3.8056 -89.76399,-4.8795 -91,-6.1497 -0.68388,-0.7028 2.31921,-0.8334 9.5,-0.4132 5.775,0.338 32.55,1.7407 59.5,3.1171 47.66459,2.4343 104.36692,5.3792 182,9.4522 20.9,1.0965 56,2.9031 78,4.0146 41.31778,2.0874 69.74579,3.5604 135,6.9948 20.9,1.1 85.7,4.4632 144,7.47378 58.30004,3.0106 111.28444,5.7662 117.74324,6.1236 9.0514,0.5009 12.1095,0.3459 13.3411,-0.6763 1.4471,-1.201 1.5438,-8.31418 1.024,-75.37808 -0.7104,-91.6676 -2.1083,-421.23157 -2.1083,-497.05186 l 0,-56 3.836,0.12169 c 2.1098,0.0669 4.4304,0.74192 5.1571,1.5 1.3657,1.42491 1.5275,18.75211 3.0094,322.37831 0.2765,56.65 0.7773,147.54996 1.113,201.99996 0.5901,95.72568 0.5487,99.05528 -1.2526,100.67098 -2.7709,2.4854 -11.9799,5.8458 -15.6499,5.7107 -1.7672,-0.065 -69.363,-3.6412 -150.21304,-7.9469 z M 101.46519,543.67418 c -0.97278,-0.61728 0.74239,-5.60793 7.12603,-20.73468 4.62395,-10.95696 13.69682,-32.52174 20.16193,-47.92174 6.46511,-15.4 13.65939,-32.5 15.98729,-38 2.32789,-5.5 4.53126,-10.95546 4.89637,-12.12324 0.57748,-1.84705 1.66844,-2.20232 8.38668,-2.7311 4.24756,-0.33432 14.92284,-0.70091 23.72284,-0.81464 l 16,-0.2068 0,2.42807 c 0,3.10059 -2.48069,3.6719 -16.62756,3.8294 -7.18668,0.08 -10.94592,0.52302 -11.61086,1.36831 -0.54082,0.6875 -11.46672,26.225 -24.27979,56.75 -12.81306,30.525 -23.97042,56.2875 -24.79412,57.25 -1.19981,1.40198 -3.10751,1.74695 -9.59266,1.73469 -4.45225,-0.008 -8.67152,-0.38114 -9.37615,-0.82827 z m 128.28114,-0.92955 c -1.1,-0.23155 -2.37633,-0.77615 -2.83629,-1.21022 -0.68529,-0.64673 20.39513,-51.70264 33.86377,-82.01665 1.83275,-4.125 5.35879,-12.45 7.83564,-18.5 2.47685,-6.05 5.62102,-13.5158 6.98705,-16.59067 l 2.48368,-5.59067 14.33308,-0.65567 c 7.88319,-0.36062 18.94557,-0.65732 24.58307,-0.65933 9.52339,-0.003 10.25,0.13562 10.25,1.96116 0,3.24706 -3.24324,4.03443 -16.68426,4.05049 -7.04866,0.008 -13.40096,0.38652 -14.11622,0.84022 -0.71527,0.4537 -12.32997,26.65931 -25.81046,58.23469 -13.48048,31.57538 -25.04526,57.91856 -25.69951,58.5404 -1.26008,1.19765 -11.81418,2.30677 -15.18955,1.59625 z m 126.99298,-2.23822 c -0.53292,-0.86229 6.70103,-18.09458 30.01024,-71.48865 8.38889,-19.2163 12.64481,-29.09108 17.76797,-41.22605 2.83889,-6.72433 5.66647,-12.41979 6.2835,-12.65656 0.61704,-0.23678 12.21966,-0.76016 25.7836,-1.16306 24.30515,-0.72196 24.66171,-0.7034 24.66171,1.28411 0,1.10917 -0.5625,2.47214 -1.25,3.02882 -0.6875,0.55668 -8.52248,1.33622 -17.41106,1.73231 l -16.16106,0.72017 -3.45347,7.64013 c -1.89941,4.20207 -13.27555,30.36513 -25.28032,58.14013 -12.00477,27.775 -22.46749,51.5125 -23.25048,52.75 -1.27835,2.02039 -2.22226,2.25 -9.2496,2.25 -4.30429,0 -8.10725,-0.45511 -8.45103,-1.01135 z m 135.16225,-1.73865 c -0.25454,-0.4125 9.85761,-24.15 22.47144,-52.75 24.8604,-56.36726 30.25945,-68.82154 31.29889,-72.19885 0.37221,-1.20936 1.44123,-2.42003 2.37559,-2.69037 0.93437,-0.27034 13.06135,-0.80422 26.94885,-1.1864 25.11549,-0.69118 25.25,-0.68382 25.25,1.38135 0,1.14193 -0.5625,2.44029 -1.25,2.88525 -0.6875,0.44496 -9.31222,1.25902 -19.16604,1.80902 l -17.91603,1 -25.74354,58.5 c -14.15894,32.175 -26.4383,59.7375 -27.28745,61.25 -1.46963,2.61768 -1.90419,2.75 -9.03141,2.75 -4.11812,0 -7.69576,-0.3375 -7.9503,-0.75 z m 140.79228,-1.52618 c -0.26934,-0.7019 3.8345,-10.9394 9.11965,-22.75 5.28515,-11.8106 12.31882,-27.54882 15.63039,-34.97382 3.31157,-7.425 7.48295,-16.65 9.26972,-20.5 1.78678,-3.85 3.59267,-8.125 4.0131,-9.5 0.42042,-1.375 1.10925,-2.95 1.53072,-3.5 0.42148,-0.55 4.2048,-8.875 8.40739,-18.5 4.20259,-9.625 8.01206,-18.175 8.46546,-19 0.9746,-1.77356 13.3272,-2.675 39.3661,-2.87278 17.17,-0.13041 17.8101,0.0234 15.7914,3.79541 -0.8505,1.5892 -3.1901,1.87212 -20.75,2.50931 -10.8853,0.39498 -20.0821,1.02188 -20.4374,1.3931 -0.3553,0.37123 -12.9011,28.12496 -27.87953,61.67496 -14.97844,33.55 -27.68035,61.5625 -28.22647,62.25 -1.36653,1.72032 -13.63895,1.69785 -14.30053,-0.0262 z M 69.18805,387.0928 c -3.05705,-0.67102 -6.09455,-1.55146 -6.75,-1.95655 -1.90423,-1.17688 -1.37988,-2.61849 0.95243,-2.61849 1.17928,0 11.64178,-2.45221 23.25,-5.44936 11.60822,-2.99715 41.35585,-10.67105 66.10585,-17.05312 64.92005,-16.74036 79.76594,-20.57241 110.5,-28.52241 15.125,-3.91239 34.25,-8.84771 42.5,-10.96737 47.40045,-12.17851 143.41994,-36.94307 159,-41.00797 6.05,-1.57847 22.7,-5.88073 37,-9.56057 14.3,-3.67984 35.225,-9.06943 46.5,-11.97687 11.275,-2.90743 36.25,-9.34777 55.5,-14.31187 19.25,-4.9641 56.15,-14.47386 82,-21.1328 97.78714,-25.18988 95.47404,-24.56307 97.26874,-26.35783 1.1362,-1.13618 0.9532,-3.4929 -1.146,-14.75598 -4.9077,-26.33186 -7.6414,-41.58117 -9.5735,-53.40385 -1.0786,-6.6 -4.2624,-24.825 -7.0752,-40.5 -2.8128,-15.675 -5.7185,-32.1 -6.4572,-36.5 -0.7386,-4.4 -2.3084,-13.11122 -3.4883,-19.35827 -1.1799,-6.24704 -1.888,-11.61557 -1.5736,-11.93005 1.2988,-1.29877 8.9397,5.37233 9.7544,8.51633 0.4591,1.77153 3.9538,20.89495 7.7661,42.49648 16.0378,90.87401 22.9695,129.46826 23.5024,130.85716 1.4264,3.71713 -1.8244,4.78862 -58.9778,19.43909 -31.35,8.03613 -90.07504,23.10087 -130.50004,33.47719 -40.425,10.37632 -108.825,27.92434 -152,38.9956 -43.175,11.07125 -104.6,26.82589 -136.5,35.0103 -31.9,8.18441 -92.425,23.70723 -134.5,34.49517 -42.075,10.78793 -81.62861,20.9389 -87.89691,22.55771 -12.25545,3.16501 -16.494,3.42078 -25.16137,1.51833 z m 29.05828,-41.48961 c 0,-0.50302 2.92615,-12.99052 6.50257,-27.75 17.23631,-71.13252 23.49743,-97.45908 23.49743,-98.80125 0,-0.8051 0.7875,-1.8533 1.75,-2.32934 3.43894,-1.70087 44.23645,-12.55172 44.85749,-11.93069 0.92566,0.92567 -0.48616,9.17937 -1.89851,11.099 -0.66494,0.90376 -6.15898,3.03409 -12.20898,4.73407 -6.05,1.69998 -11.53837,3.6088 -12.19639,4.24182 -0.65801,0.63303 -7.44752,26.93047 -15.0878,58.43876 -7.64028,31.50829 -14.32158,57.71797 -14.84733,58.24372 -1.14803,1.14803 -14.9382,4.91168 -18.11848,4.94494 -1.2375,0.013 -2.25,-0.38802 -2.25,-0.89103 z m 123,-33.96063 c 0,-1.83285 5.63541,-25.30728 21.92791,-91.34115 4.43965,-17.99399 8.07209,-33.56175 8.07209,-34.59501 0,-1.03327 0.7875,-2.54318 1.75,-3.35537 1.88748,-1.59272 41.49733,-12.83327 45.22232,-12.83327 2.11485,0 2.2117,0.28717 1.56078,4.62785 -1.2071,8.0495 -0.36671,7.4721 -17.97777,12.35162 -6.01957,1.66785 -11.21974,3.47754 -11.55595,4.02153 -0.3362,0.54398 -1.37696,4.0288 -2.3128,7.74403 -3.66152,14.53603 -23.85977,97.13095 -25.29486,103.43603 -0.83637,3.67459 -2.05416,7.12186 -2.70619,7.6606 -1.53587,1.26901 -12.70864,4.15834 -16.07987,4.15834 -1.88119,0 -2.60566,-0.52138 -2.60566,-1.8752 z m 127.60339,-30.95751 c -0.28305,-0.45799 5.76188,-26.22049 13.43318,-57.25 7.67129,-31.02951 14.91746,-60.46729 16.10259,-65.41729 1.18513,-4.95 2.29137,-9.54124 2.4583,-10.20275 0.16693,-0.66152 4.03829,-2.31356 8.60302,-3.67122 14.56088,-4.33074 34.5397,-9.70961 38.37825,-10.33252 3.68469,-0.59794 3.70988,-0.5787 3.01311,2.30175 -2.59227,10.71641 -2.29195,10.26499 -7.8755,11.83804 -2.86899,0.80828 -9.71634,2.7405 -15.21634,4.29381 l -10,2.82421 -15.06013,60.24876 c -8.29488,33.18404 -15.70694,60.85196 -16.5,61.59156 -0.79193,0.73854 -4.45735,2.07755 -8.14539,2.97558 -7.68751,1.87189 -8.48572,1.94138 -9.19109,0.80007 z m 132.39661,-35.70152 c 0,-0.84382 7.2,-30.31739 16,-65.49681 8.8,-35.17942 16,-65.03392 16,-66.34333 0,-1.30941 0.65056,-2.92066 1.4457,-3.58056 2.27699,-1.88974 49.93528,-14.96141 50.9709,-13.98026 1.1648,1.10354 -1.11001,11.62273 -2.7345,12.64488 -0.65016,0.40909 -8.3821,2.7903 -17.1821,5.29158 l -16,4.54777 -15.18044,60.4251 c -8.34924,33.2338 -15.60893,61.36553 -16.13264,62.51497 -0.70971,1.55764 -2.82846,2.52875 -8.31957,3.8132 -8.89923,2.08165 -8.86735,2.08107 -8.86735,0.16346 z m 137,-37.57839 c 0,-1.16195 4.09626,-18.14945 9.10281,-37.75 5.00655,-19.60056 12.62674,-49.58738 16.93377,-66.63738 5.86152,-23.20366 8.28773,-31.27945 9.64719,-32.11114 3.42973,-2.09825 50.41937,-14.6857 51.34967,-13.7554 1.0071,1.00704 -1.3058,11.03893 -2.9164,12.64946 -0.542,0.54202 -8.7481,3.16817 -18.23586,5.8359 -9.48773,2.66773 -17.56669,5.19484 -17.95324,5.6158 -0.38655,0.42096 -3.03476,9.99038 -5.88491,21.26538 -2.85015,11.275 -7.14634,28.15 -9.54708,37.5 -2.40074,9.35 -7.13015,27.8 -10.50979,41 -3.37964,13.2 -6.67161,24.50355 -7.31548,25.119 -1.27949,1.223 -9.33032,3.381 -12.6135,3.381 -1.42707,0 -2.05718,-0.64709 -2.05718,-2.11262 z"
         id="path3052"
         inkscape:connector-curvature="0"
         sodipodi:nodetypes="ssscsssssscsscccssscsssssssscssssscsssssscscscsssssssssssscssssssssssssscsssscsssssscssssssccsssssssssssscssscsccscsssssssssssssscsscssssssssssssssssssssssscssssssssssscssssssssccssssssss" />
    </g>
    <text
       xml:space="preserve"
       style="font-size:179.41522217px;font-style:normal;font-variant:normal;font-weight:bold;font-stretch:condensed;text-align:center;line-height:125%;letter-spacing:0px;word-spacing:0px;writing-mode:lr-tb;text-anchor:middle;fill:#000000;fill-opacity:1;stroke:none;font-family:Roboto;-inkscape-font-specification:Roboto Bold Condensed"
       x="490.43494"
       y="728.82465"
       id="text2986"
       sodipodi:linespacing="125%"
       inkscape:transform-center-x="188.80546"
       inkscape:transform-center-y="67.885072"><tspan
         sodipodi:role="line"
         id="tspan2988"
         x="490.43497"
         y="728.82465">MyMovie</tspan></text>
  </g>
</svg>
